PathFileType	4	(X/Y/Z)	50_1_rein_30_p1_0-331.trc
DataRate	CameraRate	NumFrames	NumMarkers	Units	OrigDataRate	OrigDataStartFrame	OrigNumFrames
60.0	60.0	5	27	m	60.0	249	332
Frame#	Time	RHip			RKnee			RAnkle			RBigToe			RSmallToe			RHeel			LHip			LKnee			LAnkle			LBigToe			LSmallToe			LHeel			Neck			Head			Nose			RShoulder			RElbow			RWrist			RThumb			RIndex			RPinky			LShoulder			LElbow			LWrist			LThumb			LIndex			LPinky			
		X1	Y1	Z1	X2	Y2	Z2	X3	Y3	Z3	X4	Y4	Z4	X5	Y5	Z5	X6	Y6	Z6	X7	Y7	Z7	X8	Y8	Z8	X9	Y9	Z9	X10	Y10	Z10	X11	Y11	Z11	X12	Y12	Z12	X13	Y13	Z13	X14	Y14	Z14	X15	Y15	Z15	X16	Y16	Z16	X17	Y17	Z17	X18	Y18	Z18	X19	Y19	Z19	X20	Y20	Z20	X21	Y21	Z21	X22	Y22	Z22	X23	Y23	Z23	X24	Y24	Z24	X25	Y25	Z25	X26	Y26	Z26	X27	Y27	Z27	
249	4.15	0.31287819844783543	0.7338911179085534	0.5254017438147756	0.2758121797848479	0.8259599947841548	0.9337614351480088	0.29466537814707455	1.0423126716408644	1.369128969237211	0.23085894660078934	0.7675301307276574	1.377002129311584	0.2997367395124465	0.8391906655545087	1.40618568060097	0.2756033280724007	1.1514810554206534	1.4295959545717642	0.09279887245408637	0.7315288823342745	0.5280515048334421	0.11280339276538319	0.8811874837445574	0.9427627999735666	0.11128605786804247	1.0337649658468162	1.371257594270795	0.10339888193851841	0.7917460309319887	1.3707925176760196	0.059123198909089014	0.8612615078526796	1.3868335358996726	0.11797292003319419	1.1133641796088598	1.4279465538563703	0.1976100371771553	0.5908819308779072	-0.0213985316770988	0.20177471277568565	0.38764272950892836	-0.24129001396936117	0.19536587204975683	0.38720906494646107	-0.07931958549289211	0.34761899803728	0.5652852434953881	0.044259875845070205	0.37731869027935855	0.6235449128114299	0.2830530134893974	0.2626375030309795	0.5474328303417759	0.5015862712042498	0.20672529882416998	0.5678046335637931	0.6017741648776165	0.20064653156139275	0.5684187199905847	0.6057321201014358	0.18814328909233036	0.5733075275149879	0.5983230252067699	0.05814283742778482	0.6262085621797431	0.04057285219872186	0.026950510206093174	0.6041390861377196	0.29529040307324833	0.16214532395461906	0.5382520885681942	0.5025169355913172	0.22451847520946386	0.5462921359158831	0.5867192241372899	0.22513112536237434	0.5552097729482298	0.6004268992108127	0.1926094330137011	0.5824177184884773	0.6034243938016051
250	4.166666666666667	0.31307936221328325	0.734040232939179	0.5255168122331026	0.27673383079786973	0.8286701030743734	0.9382365668563872	0.29375037832463474	1.0438285253822945	1.3737360205259186	0.23135136282952076	0.7695720700318266	1.377781430968651	0.3030905848802011	0.8223448511934743	1.4006618914538331	0.2757309555907329	1.1504858887366907	1.433273862969785	0.09343048500355347	0.7341174104672278	0.5325430548766362	0.10848800298813033	0.8791568646508708	0.9424008519448427	0.11120312240597766	1.033487566369728	1.371159625108681	0.10334664100179804	0.7917733738826549	1.3708897216791371	0.058831521216366305	0.8614715740981395	1.3870236118856685	0.12080454855880592	1.124539373295685	1.431632149499393	0.19761502335337838	0.5908634282692992	-0.021372610336273114	0.201778344153976	0.3875074196846598	-0.2412695851526009	0.19564602204671047	0.38716023559004126	-0.07930193243128902	0.3476508582712758	0.5653823207399251	0.044273048441040165	0.3726992159043999	0.6110054382654454	0.28365569388707496	0.2626726785818606	0.5472068816254217	0.5017649775672867	0.2078772616546972	0.5674554053283919	0.6016067698458383	0.20112299567812936	0.5680997820677122	0.605570181499197	0.18806333039300294	0.5732151739688622	0.5981573514985906	0.05814778515779817	0.6262388922337684	0.040590445987770035	0.026959619004222737	0.6043612587267092	0.2952603114793644	0.16573941024086125	0.5503233768293534	0.5029479764451817	0.2248628285471605	0.5461191427367723	0.5867497513162167	0.22508901112024327	0.5547868956410135	0.6003783900125044	0.1925070562196025	0.5827429460749648	0.6033504087703213
251	4.183333333333334	0.3130626873168956	0.7346105905286335	0.5255822396173312	0.27671698012274076	0.8287050059985015	0.9383895332712956	0.2937441899371823	1.0439271061634787	1.37376905050387	0.23124097789325293	0.7691581637363516	1.3776473469585395	0.30012360057817283	0.8406832252487535	1.4066494360080046	0.27572526008492554	1.1507795700816954	1.4335257936088435	0.09268844122640917	0.731698219723217	0.5242122490524488	0.1082891380642786	0.8797802816278905	0.9385851433290956	0.1111759191583255	1.0335759301933505	1.371120115900367	0.10334143958880923	0.7918353856106034	1.370906433764102	0.05872842053515585	0.8612632047006928	1.3869364435515261	0.121031118011739	1.1253835709389806	1.4318240837737708	0.19761854753134578	0.5908394777768169	-0.021388238102675487	0.20192457303558833	0.38800166508149114	-0.24135375437124582	0.19604226799594476	0.38759754885232556	-0.07617721259759118	0.3476028258726489	0.5651655042560609	0.04431732457220762	0.3771533597491563	0.6242556480487318	0.2870185421938096	0.2628523181415401	0.5472771562688936	0.5018364174603462	0.20737395967500866	0.5662339471071172	0.6013005816471739	0.2008113153321678	0.5676547774809116	0.605535837952061	0.18801359466356388	0.5732422245239929	0.5980813681547956	0.05815437786951911	0.626196461015031	0.04055003072649991	0.027010308928831616	0.6043409107516258	0.29503426630407503	0.15871922336852295	0.5520892587263394	0.5030597793485486	0.22136609884998945	0.5316080087948241	0.582553943696208	0.22128914005514594	0.5419958284465941	0.5992303392395157	0.19188189243272144	0.580499150672398	0.5998569700515446
252	4.2	0.3124423829939329	0.7360823162187985	0.5295961229542708	0.271202295727011	0.8245315102893633	0.929319940515037	0.2946248807689445	1.0423097190015471	1.3691825105571156	0.2317647901204881	0.7732957845871647	1.379192269821371	0.3004109456962155	0.8434827376492361	1.407560609007748	0.27682726652814116	1.1486844418045037	1.428582550490649	0.08799632171755657	0.7477930451159072	0.5324443277512142	0.10728594282395784	0.8767367580956872	0.9335776571493176	0.11093001421148845	1.033938224546774	1.366692683198919	0.09857268345901933	0.8102469371292533	1.3803716048415513	0.05434132516394928	0.8796878483533668	1.392989349527876	0.1225175008193487	1.1150206292807252	1.4277538735299942	0.19763603613541178	0.5909545672065333	-0.021408693153016876	0.20219568331212126	0.38743946510524135	-0.241163332189131	0.19622423358174954	0.3881413129590102	-0.07621610205414843	0.3475927855254889	0.5651544078529445	0.04435290784902534	0.3769856081872139	0.6237321432552291	0.27956064824848786	0.26299906690782215	0.5470122638606447	0.5018722860204574	0.20792088790420984	0.5673861756189441	0.6013723580181873	0.20477796268054974	0.5697853360984658	0.6057347096659011	0.19228908607055448	0.5747987586641623	0.5982990619746966	0.05817483552404877	0.6260879628209385	0.04046260863652101	0.03118091193470151	0.6060872189105182	0.29835856933000554	0.16601988999319348	0.5497105028240644	0.5027586199705841	0.21898077727527004	0.5442895274383412	0.5834495392152907	0.2228601511310817	0.5695437429281021	0.6042182486611662	0.1934668518362838	0.5823831718474691	0.6027763297622595
253	4.216666666666667	0.3126302201277498	0.7362006363649847	0.5297391515148242	0.2758866533671588	0.8392469980795771	0.9319661095110224	0.29461830800033023	1.0423414291910174	1.3692049081643671	0.2310585130294958	0.7710793804386644	1.378424025702034	0.2998035173770309	0.841683221992722	1.4071201414578267	0.27685151935057994	1.1488728391983545	1.4287273720906568	0.08801954039137372	0.7477431559399417	0.5325449354550674	0.10724891241443504	0.8769267542800376	0.9336576097037673	0.11116625524765514	1.0335371499593187	1.3711509199733365	0.09953827966311701	0.8091190878189859	1.3764161299946363	0.054486340310748456	0.8810883930581777	1.3935292930781744	0.11770338181996338	1.1104441428046223	1.426333573548356	0.19764988264933797	0.5907936174583901	-0.021370097195321472	0.20212804391192726	0.387463671953424	-0.2412052902715505	0.1961885245076333	0.38814247878562735	-0.07622680444552915	0.3475854285606724	0.5650979022111219	0.04434549925106057	0.37706472310249134	0.6235782564199085	0.28312861526500194	0.2630570651397883	0.547037589354691	0.5018787000974032	0.2080758827253557	0.5671700231442831	0.6013981204874296	0.20507859790261102	0.5694634215296719	0.6056562911351291	0.18822562702288637	0.5731531807113999	0.597922395568623	0.05817438749379553	0.6260392054198188	0.040436411992020624	0.035463657677000444	0.5926286594071704	0.29874392240614533	0.16947131963312692	0.5362421906074155	0.5023763106464282	0.2214062632773644	0.5321401303235095	0.5855099872378713	0.21948990446633312	0.558255749385864	0.6034685438556859	0.19334986128194537	0.5822497672749947	0.6027571112170071
